<?xml version="1.0" standalone="no"?>
<!DOCTYPE svg PUBLIC "-//W3C//DTD SVG 20010904//EN"
 "http://www.w3.org/TR/2001/REC-SVG-20010904/DTD/svg10.dtd">
<svg version="1.0" xmlns="http://www.w3.org/2000/svg"
 width="158.000000pt" height="159.000000pt" viewBox="0 0 158.000000 159.000000"
 preserveAspectRatio="xMidYMid meet">

<g transform="translate(0.000000,159.000000) scale(0.100000,-0.100000)">
<path d="M690 1502 c0 -4 -34 -14 -76 -21 -187 -31 -324 -111 -418 -245 -53
-75 -79 -130 -108 -232 -31 -113 -31 -314 1 -434 61 -231 207 -383 436 -456
51 -16 90 -19 255 -19 177 0 202 2 270 24 172 53 298 160 374 315 62 127 80
222 73 396 -9 223 -56 342 -188 477 -49 50 -85 75 -154 108 -85 41 -203 75
-259 75 -15 0 -26 5 -26 10 0 6 -37 10 -90 10 -49 0 -90 -4 -90 -8z m-84 -377
c19 -15 39 -38 45 -52 14 -36 11 -100 -6 -133 -14 -26 -13 -36 7 -112 20 -76
31 -97 50 -98 4 0 35 37 69 82 60 78 62 83 60 135 -3 73 31 134 89 157 52 21
73 20 119 -3 68 -35 98 -105 80 -186 -16 -72 7 -145 61 -195 32 -30 40 -44 40
-73 0 -20 -5 -46 -11 -59 -13 -30 -69 -68 -98 -68 -63 0 -124 85 -102 143 8
20 6 41 -7 84 -26 85 -43 82 -121 -24 -60 -81 -64 -90 -62 -135 6 -138 -147
-244 -256 -177 -51 31 -69 56 -83 107 -12 50 -1 105 29 144 20 25 20 26 0 104
-27 110 -29 114 -44 114 -24 0 -73 50 -85 86 -16 46 -5 96 27 135 54 64 134
74 199 24z"/>
</g>
</svg>
